<?xml version="1.0" encoding="UTF-8" standalone="no"?>
<svg
   xmlns:dc="http://purl.org/dc/elements/1.1/"
   xmlns:cc="http://creativecommons.org/ns#"
   xmlns:rdf="http://www.w3.org/1999/02/22-rdf-syntax-ns#"
   xmlns:svg="http://www.w3.org/2000/svg"
   xmlns="http://www.w3.org/2000/svg"
   xmlns:sodipodi="http://sodipodi.sourceforge.net/DTD/sodipodi-0.dtd"
   xmlns:inkscape="http://www.inkscape.org/namespaces/inkscape"
   width="177.83151mm"
   height="220.92126mm"
   viewBox="0 0 177.83151 220.92126"
   version="1.1"
   id="svg1581"
   inkscape:version="1.0.2-2 (e86c870879, 2021-01-15)"
   sodipodi:docname="logo.svg">
  <defs
     id="defs1575" />
  <sodipodi:namedview
     id="base"
     pagecolor="#ffffff"
     bordercolor="#666666"
     borderopacity="1.0"
     inkscape:pageopacity="0.0"
     inkscape:pageshadow="2"
     inkscape:zoom="0.49497475"
     inkscape:cx="184.44835"
     inkscape:cy="537.17705"
     inkscape:document-units="mm"
     inkscape:current-layer="layer1"
     inkscape:document-rotation="0"
     showgrid="false"
     fit-margin-top="0"
     fit-margin-left="0"
     fit-margin-right="0"
     fit-margin-bottom="0"
     inkscape:window-width="1920"
     inkscape:window-height="1017"
     inkscape:window-x="1912"
     inkscape:window-y="-8"
     inkscape:window-maximized="1" />
  <metadata
     id="metadata1578">
    <rdf:RDF>
      <cc:Work
         rdf:about="">
        <dc:format>image/svg+xml</dc:format>
        <dc:type
           rdf:resource="http://purl.org/dc/dcmitype/StillImage" />
        <dc:title></dc:title>
      </cc:Work>
    </rdf:RDF>
  </metadata>
  <g
     inkscape:label="Ebene 1"
     inkscape:groupmode="layer"
     id="layer1"
     transform="translate(-15.40567,6.1391601)">
    <path
       id="path2336"
       style="font-style:normal;font-variant:normal;font-weight:normal;font-stretch:normal;font-size:55.0341px;line-height:1.25;font-family:'Highway Gothic';-inkscape-font-specification:'Highway Gothic';fill:#f2f2f2;stroke-width:14.1819"
       d="m 91.529297,0 c 2.774011,39.717546 -0.146498,68.109797 -18.513672,104.56836 -0.797752,0.0546 -1.601161,0.15442 -2.40625,0.33984 -8.195221,1.88722 -13.273939,10.00401 -11.386719,18.19922 l 0.976563,4.23828 c -2.123928,3.45122 -4.36646,6.98216 -6.75,10.61914 -18.418847,28.10457 -18.447043,52.74844 -13.400391,73.16016 5.046611,20.41171 14.23324,37.08751 15.048828,50.39258 1.139301,18.58772 -11.200771,38.70915 -24.527344,53.97656 -13.326576,15.26702 -26.9726558,25.42383 -26.9726558,25.42383 -2.5302047,1.87994 -3.05670089,5.45511 -1.1757812,7.98437 1.8798236,2.53002 5.4550018,3.05647 7.984375,1.17578 0,0 14.54348,-10.79144 28.761719,-27.08007 14.218238,-16.28901 28.78178,-38.33188 27.320312,-62.17578 C 65.41841,243.36916 55.69838,226.88643 51.125,208.38867 46.55159,189.8909 46.182012,169.86997 62.994141,144.2168 c 0.27462,-0.41904 0.531466,-0.82725 0.802734,-1.24414 l 6.208984,26.96093 c 0.167547,0.72748 0.40071,1.42004 0.66211,2.09571 0.530721,2.67645 1.777189,5.24891 3.78125,7.40039 l 31.392581,33.70117 -21.798831,73.41992 c -0.541009,1.2639 -0.926181,2.58444 -1.167969,3.9336 l -0.537109,1.80859 c -0.723701,2.43755 -0.222348,4.97844 1.138671,6.94922 0.451442,1.38751 1.056895,2.7474 1.867188,4.04297 l 35.94336,57.4707 -47.789063,47.78906 c -7.09652,7.09648 -7.09652,18.52263 0,25.61914 7.096509,7.09652 18.52262,7.09652 25.619141,0 l 57.376952,-57.37695 c 3.62367,-3.62367 5.3856,-8.37689 5.30859,-13.10547 0.24458,-3.66748 -0.60834,-7.44638 -2.71484,-10.81445 l -21.18555,-33.875 59.47071,21.98047 26.87304,68.67187 c 3.65742,9.34579 14.12685,13.92503 23.47266,10.26758 9.34582,-3.65741 13.925,-14.12683 10.26758,-23.47266 l -29.57031,-75.56054 c -1.78654,-4.56513 -5.20433,-7.98301 -9.31641,-9.86914 -1.23433,-0.85479 -2.58026,-1.58712 -4.05664,-2.13282 l -63.36524,-23.41992 13.04493,-43.93555 27.33789,21.09766 c 2.75718,2.12767 6.00112,3.14861 9.2207,3.16016 1.65086,0.0682 3.33978,-0.11808 5.01563,-0.6211 l 26.79882,-8.04297 c -1.55342,4.15089 -1.9088,7.37947 -1.15625,10.19727 1.76114,6.59754 10.11454,8.46034 16.48633,3.67773 2.16178,-1.62293 2.19159,-1.70358 0.94336,-2.77734 -3.08942,-2.65815 -4.11803,-4.97948 -3.55469,-8.03711 l 2.59375,-7.6582 3.91211,-1.17383 c 8.05469,-2.41762 12.59342,-10.84765 10.17578,-18.90234 -0.67818,-2.25948 -1.84267,-4.22926 -3.32617,-5.85938 l 13.7461,5.62109 c 2.83026,1.15755 6.03971,-0.18924 7.19726,-3.01953 1.15755,-2.83028 -0.18924,-6.04166 -3.01953,-7.19921 l -11.94336,-4.88477 c 0.61208,-1.44517 1.23517,-2.95226 1.90234,-4.45313 17.09821,-37.7552 22.73913,-53.41527 25.50196,-70.7871 2.04121,-12.83377 2.0295,-18.51769 -0.0703,-30.75391 -5.52013,-18.645923 -16.31454,-48.24618 -38.49024,-53.037111 -0.0518,-0.0019 -0.0866,0.0014 -0.10742,0.04297 3.59947,18.824316 9.29883,39.607734 9.44336,59.923832 -0.13644,17.53473 -3.16405,48.45349 -6.49805,66.37109 -1.54111,8.28328 -3.92268,18.6146 -6.13086,26.78516 l -12.64258,-5.17188 c -2.83028,-1.15755 -6.04166,0.18924 -7.19921,3.01953 -1.15755,2.83027 0.18923,6.03972 3.01953,7.19727 l 13.25195,5.41992 c -1.17488,0.0666 -2.36027,0.25557 -3.53906,0.60937 l -38.96875,11.69727 -32.05469,-24.73633 c -0.96052,-0.74123 -1.9859,-1.33331 -3.04297,-1.8125 -0.71374,-0.57357 -1.52717,-1.04038 -2.43555,-1.34961 L 128.51562,192.93359 99.212891,161.47266 88.808594,116.29492 C 88.042306,112.96733 86.238737,110.16718 83.830078,108.125 102.09577,70.739773 105.52238,39.932405 102.94141,0 Z m 89.798823,42.947266 v 31.292968 3.707032 c 7.32729,4.374047 13.06742,10.671128 17.24415,16.71875 a 7.5598106,7.5598106 0 0 1 0.0312,0.03711 c 0.73824,1.083591 1.41925,2.06153 2.05859,2.929687 4.49246,6.099398 5.05387,6.611318 9.93555,6.902348 a 7.5598106,7.5598106 0 0 1 0.45898,0.0469 c 0.26873,0.0416 0.3424,0.0371 0.2207,0.0371 a 7.5598106,7.5598106 0 0 1 0.008,0 c 0.2657,0 2.72402,-0.83049 6.25976,-2.03125 1.76788,-0.60057 3.90189,-1.26172 6.60742,-1.26172 2.70557,0 6.03953,0.94047 8.5918,2.97461 a 7.5598106,7.5598106 0 0 1 0.59766,0.52344 c 2.72276,2.6846 4.3338,6.59178 4.36328,10.20312 0.0302,3.61134 -1.17523,6.79224 -2.82813,9.56641 -3.30576,5.54873 -8.56695,9.9612 -14.88867,13.38281 a 7.5598106,7.5598106 0 0 1 -0.8418,0.39258 c -7.75282,3.03609 -12.86575,4.31476 -17.96679,4.26563 -0.28989,0 -0.5569,-0.0606 -0.8418,-0.0606 3.18871,6.10961 5.43317,12.65624 5.43359,19.6582 3.1e-4,16.96705 -10.07913,31.30889 -24.4414,38.25 v 5.95117 l 24.83984,19.16407 20.0625,-6.02344 c -3.08783,-3.62759 -4.26472,-8.76909 -2.36914,-13.4043 2.69375,-6.58659 10.47461,-9.84796 17.06055,-7.1543 l 4.40625,1.80274 c 1.47557,-6.08088 3.06059,-12.35064 4.07422,-17.79883 3.1948,-17.16889 6.22665,-48.22714 6.36328,-64.97461 -0.0476,-6.37115 -0.70657,-12.90397 -1.69141,-19.499998 L 203.33203,83.597656 h 48.06836 C 249.77758,75.503798 247.9771,67.421894 246.4668,59.523438 a 7.5598106,7.5598106 0 0 1 0.64258,-4.753907 c 0.7579,-1.540535 3.11195,-3.498449 4.73828,-3.964843 1.62632,-0.464882 2.15939,-0.302735 2.14843,-0.302735 a 7.5598106,7.5598106 0 0 1 1.59571,0.169922 c 13.98115,3.020598 23.65585,13.549702 30.39062,24.841797 1.57607,2.642646 3.00809,5.355165 4.32031,8.083984 H 425.11719 V 452.5332 H 203.33203 L 343.1543,411.33984 V 124.79102 l -42.85157,-12.625 c 1.76413,11.20969 1.68093,18.55267 -0.27929,30.87695 -2.81121,17.67648 -8.97287,34.5334 -24.92188,69.95703 l 4.85742,1.98633 c 6.58647,2.69367 9.84617,10.46652 7.15235,17.05273 -2.63074,6.43275 -10.10212,9.61366 -16.58594,7.24805 -1.00898,8.77493 -7.09537,16.60862 -16.02734,19.28906 l -0.17774,0.0606 -0.97265,2.87109 c 0.0435,0.0605 0.10772,0.24968 0.95117,0.97461 0.35868,0.30992 0.84661,0.5851 1.78711,1.83008 0.94054,1.24497 2.12965,4.92664 1.24804,7.51562 -0.88157,2.58899 -2.031,3.29686 -2.67968,3.86719 -0.64868,0.56995 -1.13362,0.91913 -1.69141,1.33789 -4.83114,3.62494 -10.7068,4.97803 -16.15234,3.76368 -5.44551,-1.21475 -10.56898,-5.5322 -12.17188,-11.53711 -0.14702,-0.54993 -0.0185,-1.12763 -0.11133,-1.6836 l -16.05468,4.81445 c -2.46365,0.74154 -4.95153,0.99954 -7.34571,0.91602 -4.76172,-0.0454 -9.62211,-1.57544 -13.68554,-4.71094 l -6.11133,-4.71679 v 24.4707 l 36.33203,13.42773 c 1.81463,0.6705 3.38322,1.59695 4.87305,2.55469 5.67602,2.69707 10.4582,7.47706 12.92578,13.7832 l 29.56445,75.56055 c 5.13589,13.12403 -1.42656,28.13315 -14.55078,33.26953 -13.12471,5.13638 -28.13357,-1.43261 -33.26953,-14.55664 l -25.63086,-65.50781 -10.24414,-3.78711 v 68.24609 41.19336 9.35742 31.29102 h 284.4375 V 42.947266 Z m -18.67187,36.9375 c -13.32775,0.603968 -23.25972,9.769843 -29.69531,19.08789 -6.19204,9.089764 -10.05332,12.660814 -17.79492,13.123044 -1.12378,0.17031 -2.27362,0.0658 -3.4336,-0.18945 -0.38665,-0.0851 -0.77366,-0.18683 -1.16211,-0.30078 -4.66143,-1.36761 -9.41336,-4.48263 -13.291013,-1.39258 -5.752479,5.67156 0.934868,15.32375 11.648433,21.12305 19.79358,7.75181 13.70684,0.99126 53.72852,1.40625 20.01084,-0.2075 28.49581,1.37956 34.45117,2.04883 1.48885,0.16732 2.81944,0.27679 4.13281,0.2871 3.94014,0.031 7.7239,-0.83525 15.14649,-3.74218 10.71356,-5.7993 17.39899,-15.45149 11.64648,-21.12305 -4.84707,-3.86291 -11.05795,1.97086 -16.7539,1.9668 -0.37973,-2.7e-4 -0.75626,-0.0272 -1.13086,-0.084 -6.77387,-0.40445 -10.57901,-3.18921 -15.57227,-9.96875 -0.71332,-0.9685 -1.45059,-2.01807 -2.22461,-3.154294 -6.43558,-9.318047 -16.36752,-18.483922 -29.69531,-19.08789 z m -3.61523,57.021484 0.002,0.0176 c -10.53634,0 -17.34556,0.52209 -22.40235,1.07617 a 35.554171,35.554171 0 0 0 -6.75781,10.44727 c 11.96711,0.17385 21.80792,0.24854 30.02344,-1.55469 6.97667,-1.5326 12.92421,-4.32889 18.59766,-9.67578 -4.27707,-0.21166 -9.36282,-0.34147 -15.80469,-0.27344 h -0.0449 -0.041 c -1.23602,0 -2.42636,-0.0371 -3.57226,-0.0371 z m 24.98632,0.65625 c -6.98067,7.54771 -14.5683,11.53129 -23.2207,13.43164 -0.72691,0.15874 -1.46428,0.30328 -2.20703,0.43555 l 0.38477,3.46093 v 0.0371 c 0.54503,4.91869 -2.60851,9.39565 -7.04493,10 -4.43557,0.60435 -8.47556,-2.8903 -9.02148,-7.80859 l -0.48633,-4.39453 c -4.37813,0.0605 -9.02129,8.3e-4 -14.00781,-0.0898 a 35.554171,35.554171 0 0 0 -1.32227,9.59961 35.554171,35.554171 0 0 0 35.55469,35.55468 35.554171,35.554171 0 0 0 35.55469,-35.55468 35.554171,35.554171 0 0 0 -9.53906,-24.23243 c -1.39144,-0.15118 -2.94447,-0.29759 -4.64454,-0.43554 z m 129.71094,115.26562 a 15.237674,15.237674 0 0 1 0.10742,0 15.237674,15.237674 0 0 1 15.23633,15.23633 15.237674,15.237674 0 0 1 -15.23633,15.23828 15.237674,15.237674 0 0 1 -15.23828,-15.23828 15.237674,15.237674 0 0 1 15.13086,-15.23633 z m -69.7207,20.5625 v 0.0156 h 0.004 c 0.10772,0.14362 0.10486,0.12426 0.17969,0.21875 -0.0563,-0.0831 -0.11178,-0.16634 -0.18359,-0.23438 z M 0,567.31641 V 706.67773 H 86.529297 V 684.21289 H 22.048828 V 646.14844 H 62.609375 V 623.68555 H 22.048828 v -34.32032 h 60.113281 v -22.04882 z m 107.12109,0 v 139.36132 h 22.04883 v -94.43359 l 53.24805,94.43359 H 201.9707 V 567.31641 h -22.04882 v 89.02539 l -50.75196,-89.02539 z m 115.44141,0 v 19.55273 h 31.82422 v 119.80859 h 22.04883 V 586.86914 h 32.24023 v -19.55273 z m 107.12109,0 v 139.36132 h 86.5293 v -22.46484 h -64.48047 v -38.06445 h 40.56055 v -22.46289 h -40.56055 v -34.32032 h 60.11328 v -22.04882 z m 107.1211,0 v 139.36132 h 22.04883 v -60.52929 h 26.41601 l 22.46485,60.52929 h 23.91992 l -24.54297,-65.10546 c 6.37876,-2.91205 11.57824,-7.62517 15.59961,-14.14258 4.02139,-6.6561 6.03125,-13.66033 6.03125,-21.00977 0,-9.70678 -3.3283,-18.58026 -9.98438,-26.62304 -6.51744,-8.18155 -15.46122,-12.34189 -26.83203,-12.48047 z m 115.4414,0 v 139.36132 h 22.04883 v -60.52929 h 26.41602 l 22.46484,60.52929 h 23.91992 l -24.54492,-65.10546 c 6.37876,-2.91205 11.58017,-7.62517 15.60156,-14.14258 4.02137,-6.6561 6.03125,-13.66033 6.03125,-21.00977 0,-9.70678 -3.3283,-18.58026 -9.98437,-26.62304 -6.51742,-8.18155 -15.4612,-12.34189 -26.83203,-12.48047 z m -93.39257,22.67187 h 32.24023 c 4.02139,0.13866 7.62704,1.66412 10.81641,4.57617 3.32805,2.91205 4.99218,7.0724 4.99218,12.48047 0,5.40808 -1.45516,9.63679 -4.36718,12.6875 -2.91205,3.05071 -6.44933,4.57617 -10.60938,4.57617 h -33.07226 z m 115.4414,0 h 32.24024 c 4.02139,0.13866 7.62701,1.66412 10.8164,4.57617 3.32803,2.91205 4.99219,7.0724 4.99219,12.48047 0,5.40808 -1.45712,9.63679 -4.36914,12.6875 -2.91205,3.05071 -6.44737,4.57617 -10.60742,4.57617 h -33.07227 z"
       transform="matrix(0.26458333,0,0,0.26458333,15.40567,-6.1391601)" />
    <path
       id="path2192"
       style="fill:#8dbf9f;fill-opacity:1;stroke:none;stroke-width:4.75697;stroke-linecap:round;stroke-linejoin:bevel;paint-order:stroke fill markers"
       inkscape:transform-center-x="-4.263192"
       inkscape:transform-center-y="-3.61699e-05"
       d="m 167.65839,186.3833 v 6.1546 H 15.40567 v 16.0895 h 152.25272 v 6.1547 l 12.7894,-7.0999 12.7894,-7.0993 -12.7894,-7.0998 z" />
  </g>
</svg>
